<?xml version="1.0" encoding="utf-8"?>
<!-- Generator: Adobe Illustrator 26.1.0, SVG Export Plug-In . SVG Version: 6.00 Build 0)  -->
<svg version="1.1" xmlns="http://www.w3.org/2000/svg" xmlns:xlink="http://www.w3.org/1999/xlink" x="0px" y="0px"
	 viewBox="0 0 24 24" style="enable-background:new 0 0 24 24;" xml:space="preserve">
<style type="text/css">
	.st0{display:none;}
	.st1{display:inline;}
	.st2{fill:url(#SVGID_1_);}
	.st3{opacity:0.5;}
	.st4{fill:none;stroke:#F2F2F2;stroke-miterlimit:10;}
	.st5{fill:url(#SVGID_00000152943353565762494750000017671795178952257187_);}
	.st6{fill:url(#SVGID_00000118367954257559121520000002206120759639728039_);}
	.st7{fill:url(#SVGID_00000170972933645740757930000002730302828064800917_);}
</style>
<g>
	<g class="st0">
		<rect class="st1" width="24" height="24"/>
	</g>
	<linearGradient id="SVGID_1_" gradientUnits="userSpaceOnUse" x1="3.3383" y1="17.0008" x2="20.6617" y2="6.9992">
		<stop  offset="0" style="stop-color:#296F7F"/>
		<stop  offset="1" style="stop-color:#42BFEA"/>
	</linearGradient>
	<circle class="st2" cx="12" cy="12" r="10"/>
</g>
<g class="st3">
	<ellipse class="st4" cx="12" cy="12" rx="3.5" ry="8.5"/>
	<line class="st4" x1="3.5" y1="12" x2="20.5" y2="12"/>
	<path class="st4" d="M5,17c4.1-2.5,9.9-2.5,14,0"/>
	<path class="st4" d="M18,7"/>
	<path class="st4" d="M6,7"/>
	<path class="st4" d="M5,7c4.1,2.6,9.9,2.6,14,0"/>
	<circle class="st4" cx="12" cy="12" r="8.5"/>
</g>
<g>
	
		<linearGradient id="SVGID_00000142885834903384120420000018112674655636227212_" gradientUnits="userSpaceOnUse" x1="8" y1="24" x2="8" y2="10">
		<stop  offset="0" style="stop-color:#191919"/>
		<stop  offset="1" style="stop-color:#4D4D4D"/>
	</linearGradient>
	<polygon style="fill:url(#SVGID_00000142885834903384120420000018112674655636227212_);" points="16,24 8,10 0,24 	"/>
	
		<linearGradient id="SVGID_00000028322763187906332620000011452814532392835457_" gradientUnits="userSpaceOnUse" x1="16" y1="24" x2="16" y2="14">
		<stop  offset="0" style="stop-color:#353535"/>
		<stop  offset="0" style="stop-color:#282828"/>
		<stop  offset="1" style="stop-color:#4D4D4D"/>
	</linearGradient>
	<polygon style="fill:url(#SVGID_00000028322763187906332620000011452814532392835457_);" points="8,24 16,14 24,24 	"/>
</g>
<g>
	
		<linearGradient id="SVGID_00000099631911609340501910000011428655662164248468_" gradientUnits="userSpaceOnUse" x1="16.2498" y1="8.6654" x2="18.7502" y2="4.3346">
		<stop  offset="0" style="stop-color:#FF5500"/>
		<stop  offset="1" style="stop-color:#FBB03B"/>
	</linearGradient>
	<circle style="fill:url(#SVGID_00000099631911609340501910000011428655662164248468_);" cx="17.5" cy="6.5" r="2.5"/>
</g>
</svg>
